<svg width="652" height="347" viewBox="0 0 652 347" fill="none" xmlns="http://www.w3.org/2000/svg">
<g filter="url(#filter0_d_996_2116)">
<rect x="301.33" y="10.7722" width="231" height="289" rx="15" transform="rotate(82.7604 301.33 10.7722)" fill="white"/>
</g>
<path d="M16.2723 60.0882C15.2283 51.87 21.0442 44.3615 29.2624 43.3175L286.198 10.6784C294.416 9.63441 301.924 15.4503 302.968 23.6685L303.346 26.6446L16.6504 63.0642L16.2723 60.0882Z" fill="#103472"/>
<path d="M248.474 65.3682L38.7732 92.007" stroke="#E2E2E2" stroke-width="0.5"/>
<path d="M250.617 82.2327L40.9156 108.872" stroke="#E2E2E2" stroke-width="0.5"/>
<path d="M252.759 99.0972L43.0579 125.736" stroke="#E2E2E2" stroke-width="0.5"/>
<path d="M254.901 115.962L45.2002 142.601" stroke="#E2E2E2" stroke-width="0.5"/>
<path d="M257.044 132.826L47.3426 159.465" stroke="#E2E2E2" stroke-width="0.5"/>
<path d="M259.186 149.69L49.4849 176.329" stroke="#E2E2E2" stroke-width="0.5"/>
<path d="M261.328 166.555L51.6273 193.194" stroke="#E2E2E2" stroke-width="0.5"/>
<path d="M263.471 183.419L53.7696 210.058" stroke="#E2E2E2" stroke-width="0.5"/>
<path d="M265.613 200.284L55.9119 226.923" stroke="#E2E2E2" stroke-width="0.5"/>
<rect x="189.208" y="89.5295" width="7.00001" height="148.917" transform="rotate(82.7604 189.208 89.5295)" fill="#103472"/>
<rect x="162.548" y="99.9727" width="7" height="121.153" transform="rotate(82.7604 162.548 99.9727)" fill="#9DA5AD"/>
<rect x="249.327" y="112.134" width="7.00001" height="205.707" transform="rotate(82.7604 249.327 112.134)" fill="#103472"/>
<rect x="211.398" y="124.008" width="7" height="166.585" transform="rotate(82.7604 211.398 124.008)" fill="#9DA5AD"/>
<rect x="294.446" y="166.884" width="7.00001" height="243.568" transform="rotate(82.7604 294.446 166.884)" fill="#103472"/>
<rect x="249.375" y="179.666" width="7" height="197.245" transform="rotate(82.7604 249.375 179.666)" fill="#9DA5AD"/>
<rect x="221.809" y="145.87" width="7" height="174.157" transform="rotate(82.7604 221.809 145.87)" fill="#103472"/>
<rect x="162.597" y="160.448" width="7" height="113.581" transform="rotate(82.7604 162.597 160.448)" fill="#9DA5AD"/>
<path d="M35.9337 64.6467L60.0034 254.124" stroke="#6B6B6B" stroke-width="0.7"/>
<g filter="url(#filter1_d_996_2116)">
<rect x="406.148" y="55.1865" width="231" height="192" rx="15" transform="rotate(3.88327 406.148 55.1865)" fill="white"/>
</g>
<path d="M443.047 87.4575L432.851 237.673" stroke="#E2E2E2" stroke-width="0.5"/>
<path d="M460.008 88.6086L449.812 238.824" stroke="#E2E2E2" stroke-width="0.5"/>
<path d="M476.969 89.76L466.773 239.975" stroke="#E2E2E2" stroke-width="0.5"/>
<path d="M493.93 90.9114L483.734 241.127" stroke="#E2E2E2" stroke-width="0.5"/>
<path d="M510.891 92.0627L500.695 242.278" stroke="#E2E2E2" stroke-width="0.5"/>
<path d="M527.852 93.2139L517.656 243.429" stroke="#E2E2E2" stroke-width="0.5"/>
<path d="M544.813 94.3652L534.617 244.581" stroke="#E2E2E2" stroke-width="0.5"/>
<path d="M561.774 95.5166L551.578 245.732" stroke="#E2E2E2" stroke-width="0.5"/>
<path d="M578.735 96.668L568.539 246.883" stroke="#E2E2E2" stroke-width="0.5"/>
<path d="M595.696 97.8191L585.5 248.035" stroke="#E2E2E2" stroke-width="0.5"/>
<path d="M414.596 226.05L605.158 238.986" stroke="#E2E2E2" stroke-width="0.5"/>
<path d="M415.391 214.336L605.953 227.271" stroke="#E2E2E2" stroke-width="0.5"/>
<path d="M416.186 202.622L606.748 215.557" stroke="#E2E2E2" stroke-width="0.5"/>
<path d="M416.982 190.908L607.543 203.843" stroke="#E2E2E2" stroke-width="0.5"/>
<path d="M417.777 179.194L608.338 192.129" stroke="#E2E2E2" stroke-width="0.5"/>
<path d="M418.572 167.48L609.133 180.415" stroke="#E2E2E2" stroke-width="0.5"/>
<path d="M419.367 155.766L609.928 168.701" stroke="#E2E2E2" stroke-width="0.5"/>
<path d="M420.162 144.052L610.724 156.987" stroke="#E2E2E2" stroke-width="0.5"/>
<path d="M420.957 132.338L611.519 145.273" stroke="#E2E2E2" stroke-width="0.5"/>
<path d="M421.752 120.624L612.314 133.559" stroke="#E2E2E2" stroke-width="0.5"/>
<path d="M422.548 108.91L613.109 121.845" stroke="#E2E2E2" stroke-width="0.5"/>
<path d="M423.343 97.1958L613.904 110.131" stroke="#E2E2E2" stroke-width="0.5"/>
<path d="M453.57 153.934C437.615 190.364 419.361 202.607 409.109 203.526L611.144 217.24L617.271 126.973C620.628 126.74 626.814 128.324 593.989 122.97C550.371 115.856 557.783 161.7 534.158 170.134C487.616 183.935 494.492 60.491 453.57 153.934Z" fill="url(#paint0_linear_996_2116)"/>
<path d="M409.109 203.526C419.361 202.607 437.615 190.364 453.57 153.934C494.492 60.491 487.616 183.935 534.158 170.134C557.783 161.7 550.371 115.856 593.989 122.97L618.791 126.73" stroke="#1E232E" stroke-linecap="round"/>
<g filter="url(#filter2_d_996_2116)">
<rect x="306.499" y="22.9629" width="153" height="194" rx="15" transform="rotate(2.96343 306.499 22.9629)" fill="white"/>
</g>
<path d="M402.711 72.7012C408.461 76.3567 413.284 81.2975 416.798 87.1344C420.313 92.9713 422.425 99.5447 422.966 106.337C423.507 113.129 422.464 119.953 419.918 126.273C417.372 132.593 413.393 138.236 408.295 142.756C403.197 147.276 397.119 150.55 390.539 152.321C383.96 154.092 377.059 154.31 370.381 152.959C363.703 151.608 357.43 148.725 352.056 144.536C346.682 140.348 342.354 134.968 339.414 128.822L351.321 123.125C353.379 127.427 356.409 131.193 360.17 134.125C363.932 137.057 368.323 139.075 372.998 140.021C377.673 140.967 382.503 140.814 387.109 139.574C391.715 138.335 395.969 136.043 399.538 132.879C403.107 129.715 405.892 125.765 407.674 121.341C409.456 116.917 410.187 112.14 409.808 107.385C409.429 102.631 407.951 98.0297 405.49 93.9439C403.03 89.8581 399.654 86.3995 395.629 83.8406L402.711 72.7012Z" fill="#103472"/>
<path d="M339.423 128.842C335.138 119.898 334.001 109.768 336.196 100.095C338.391 90.423 343.789 81.7761 351.515 75.557C359.242 69.338 368.842 65.9117 378.76 65.8339C388.678 65.7562 398.331 69.0316 406.154 75.1287L398.039 85.5399C392.563 81.2719 385.806 78.9791 378.864 79.0335C371.921 79.088 365.201 81.4864 359.792 85.8397C354.384 90.193 350.605 96.2459 349.069 103.016C347.532 109.787 348.328 116.878 351.328 123.139L339.423 128.842Z" fill="#103472"/>
<rect x="318.189" y="48.6016" width="36" height="5" rx="2" transform="rotate(2.96343 318.189 48.6016)" fill="#E3E3E3"/>
<path d="M334.971 188.656L369.924 190.466" stroke="#E3E3E3" stroke-width="4" stroke-linecap="round"/>
<path d="M395.889 191.81L430.843 193.619" stroke="#E3E3E3" stroke-width="4" stroke-linecap="round"/>
<circle cx="384.379" cy="191.715" r="4.5" transform="rotate(2.96343 384.379 191.715)" fill="#103472"/>
<g filter="url(#filter3_d_996_2116)">
<rect x="209.537" y="137.906" width="159" height="191" rx="15" transform="rotate(-4.88565 209.537 137.906)" fill="white"/>
</g>
<path d="M210.815 152.851C210.109 144.597 216.228 137.334 224.483 136.628L353.014 125.642C361.268 124.936 368.531 131.055 369.237 139.31L369.918 147.281L211.496 160.822L210.815 152.851Z" fill="#103472"/>
<path d="M235.947 285.192L366.977 273.992" stroke="#E2E2E2" stroke-width="0.5"/>
<path d="M234.5 268.254L365.529 257.054" stroke="#E2E2E2" stroke-width="0.5"/>
<path d="M233.052 251.315L364.081 240.115" stroke="#E2E2E2" stroke-width="0.5"/>
<path d="M231.604 234.377L362.633 223.177" stroke="#E2E2E2" stroke-width="0.5"/>
<path d="M230.156 217.439L361.185 206.239" stroke="#E2E2E2" stroke-width="0.5"/>
<path d="M228.708 200.501L359.737 189.301" stroke="#E2E2E2" stroke-width="0.5"/>
<path d="M227.26 183.562L358.289 172.362" stroke="#E2E2E2" stroke-width="0.5"/>
<path d="M225.812 166.624L356.842 155.424" stroke="#E2E2E2" stroke-width="0.5"/>
<rect x="256.759" y="181.041" width="19.967" height="118" transform="rotate(-4.88565 256.759 181.041)" fill="#1E232E"/>
<rect x="287.852" y="237.598" width="19.967" height="59" transform="rotate(-4.88565 287.852 237.598)" fill="#103472"/>
<rect x="311.196" y="203.486" width="19.967" height="91" transform="rotate(-4.88565 311.196 203.486)" fill="#26304D"/>
<path d="M237.31 301.134L368.339 289.933" stroke="#6B6B6B" stroke-width="0.7"/>
<defs>
<filter id="filter0_d_996_2116" x="0.403152" y="0.54126" width="344.268" height="294.04" filterUnits="userSpaceOnUse" color-interpolation-filters="sRGB">
<feFlood flood-opacity="0" result="BackgroundImageFix"/>
<feColorMatrix in="SourceAlpha" type="matrix" values="0 0 0 0 0 0 0 0 0 0 0 0 0 0 0 0 0 0 127 0" result="hardAlpha"/>
<feOffset dy="4"/>
<feGaussianBlur stdDeviation="8"/>
<feComposite in2="hardAlpha" operator="out"/>
<feColorMatrix type="matrix" values="0 0 0 0 0 0 0 0 0 0 0 0 0 0 0 0 0 0 0.25 0"/>
<feBlend mode="normal" in2="BackgroundImageFix" result="effect1_dropShadow_996_2116"/>
<feBlend mode="normal" in="SourceGraphic" in2="effect1_dropShadow_996_2116" result="shape"/>
</filter>
<filter id="filter1_d_996_2116" x="378.126" y="44.1672" width="273.511" height="237.242" filterUnits="userSpaceOnUse" color-interpolation-filters="sRGB">
<feFlood flood-opacity="0" result="BackgroundImageFix"/>
<feColorMatrix in="SourceAlpha" type="matrix" values="0 0 0 0 0 0 0 0 0 0 0 0 0 0 0 0 0 0 127 0" result="hardAlpha"/>
<feOffset dy="4"/>
<feGaussianBlur stdDeviation="8"/>
<feComposite in2="hardAlpha" operator="out"/>
<feColorMatrix type="matrix" values="0 0 0 0 0 0 0 0 0 0 0 0 0 0 0 0 0 0 0.25 0"/>
<feBlend mode="normal" in2="BackgroundImageFix" result="effect1_dropShadow_996_2116"/>
<feBlend mode="normal" in="SourceGraphic" in2="effect1_dropShadow_996_2116" result="shape"/>
</filter>
<filter id="filter2_d_996_2116" x="281.224" y="11.718" width="193.315" height="232.14" filterUnits="userSpaceOnUse" color-interpolation-filters="sRGB">
<feFlood flood-opacity="0" result="BackgroundImageFix"/>
<feColorMatrix in="SourceAlpha" type="matrix" values="0 0 0 0 0 0 0 0 0 0 0 0 0 0 0 0 0 0 127 0" result="hardAlpha"/>
<feOffset dy="4"/>
<feGaussianBlur stdDeviation="8"/>
<feComposite in2="hardAlpha" operator="out"/>
<feColorMatrix type="matrix" values="0 0 0 0 0 0 0 0 0 0 0 0 0 0 0 0 0 0 0.25 0"/>
<feBlend mode="normal" in2="BackgroundImageFix" result="effect1_dropShadow_996_2116"/>
<feBlend mode="normal" in="SourceGraphic" in2="effect1_dropShadow_996_2116" result="shape"/>
</filter>
<filter id="filter3_d_996_2116" x="194.759" y="113.586" width="204.245" height="233.404" filterUnits="userSpaceOnUse" color-interpolation-filters="sRGB">
<feFlood flood-opacity="0" result="BackgroundImageFix"/>
<feColorMatrix in="SourceAlpha" type="matrix" values="0 0 0 0 0 0 0 0 0 0 0 0 0 0 0 0 0 0 127 0" result="hardAlpha"/>
<feOffset dy="4"/>
<feGaussianBlur stdDeviation="8"/>
<feComposite in2="hardAlpha" operator="out"/>
<feColorMatrix type="matrix" values="0 0 0 0 0 0 0 0 0 0 0 0 0 0 0 0 0 0 0.25 0"/>
<feBlend mode="normal" in2="BackgroundImageFix" result="effect1_dropShadow_996_2116"/>
<feBlend mode="normal" in="SourceGraphic" in2="effect1_dropShadow_996_2116" result="shape"/>
</filter>
<linearGradient id="paint0_linear_996_2116" x1="517.817" y1="117.531" x2="512.126" y2="203.943" gradientUnits="userSpaceOnUse">
<stop stop-color="#5200FF" stop-opacity="0.42"/>
<stop offset="1" stop-color="#5200FF" stop-opacity="0"/>
</linearGradient>
</defs>
</svg>
